<mxfile host="app.diagrams.net" modified="2022-08-30T17:41:00.062Z" agent="5.0 (Windows NT 10.0; Win64; x64) AppleWebKit/537.36 (KHTML, like Gecko) Chrome/104.0.5112.102 Safari/537.36" etag="uKJp77vr84AJhzqNPQYZ" version="20.2.7" type="github">
  <diagram id="C5RBs43oDa-KdzZeNtuy" name="Page-1">
    <mxGraphModel dx="1422" dy="831" grid="1" gridSize="10" guides="1" tooltips="1" connect="1" arrows="1" fold="1" page="1" pageScale="1" pageWidth="1920" pageHeight="1200" background="#ffffff" math="0" shadow="0">
      <root>
        <mxCell id="WIyWlLk6GJQsqaUBKTNV-0" />
        <mxCell id="WIyWlLk6GJQsqaUBKTNV-1" parent="WIyWlLk6GJQsqaUBKTNV-0" />
        <mxCell id="Lt6Cy_P6jHiYWKK2fMfe-1" value="&lt;p style=&quot;font-size: 15px;&quot;&gt;REST Clients&lt;/p&gt;" style="rounded=0;whiteSpace=wrap;html=1;fillColor=#99CCFF;fontFamily=Work Sans;fontSource=https%3A%2F%2Ffonts.googleapis.com%2Fcss%3Ffamily%3DWork%2BSans;fontStyle=0;labelBorderColor=none;strokeColor=none;glass=0;sketch=0;gradientColor=none;fontSize=15;shadow=1;" parent="WIyWlLk6GJQsqaUBKTNV-1" vertex="1">
          <mxGeometry x="140" y="310" width="190" height="120" as="geometry" />
        </mxCell>
        <mxCell id="LQQi7iO9lTZ28nIIsQ9H-5" value="POST /report" style="text;html=1;strokeColor=none;fillColor=none;align=center;verticalAlign=middle;whiteSpace=wrap;rounded=0;fontFamily=Work Sans;fontSource=https%3A%2F%2Ffonts.googleapis.com%2Fcss%3Ffamily%3DWork%2BSans;fontStyle=1;fontSize=13;labelPosition=center;verticalLabelPosition=middle;fontColor=#000000;labelBackgroundColor=none;labelBorderColor=none;horizontal=1;" vertex="1" parent="WIyWlLk6GJQsqaUBKTNV-1">
          <mxGeometry x="350" y="330" width="90" height="30" as="geometry" />
        </mxCell>
        <mxCell id="LQQi7iO9lTZ28nIIsQ9H-8" value="&lt;p style=&quot;line-height: 1.1;&quot;&gt;&lt;/p&gt;&lt;h4&gt;Request Body&lt;/h4&gt;&lt;p style=&quot;line-height: 0.1;&quot;&gt;{&lt;/p&gt;&lt;p style=&quot;line-height: 0.1;&quot;&gt;&amp;nbsp; &amp;nbsp; &quot;downloadFormat&quot;: string,&lt;/p&gt;&lt;p style=&quot;line-height: 0.1;&quot;&gt;&amp;nbsp; &amp;nbsp; &quot;filters&quot;: string (JSON),&lt;/p&gt;&lt;p style=&quot;line-height: 0.1;&quot;&gt;&amp;nbsp; &amp;nbsp; &quot;reportType&quot;: string,&lt;/p&gt;&lt;p style=&quot;line-height: 0.1;&quot;&gt;&amp;nbsp; &amp;nbsp; &quot;templateId&quot;: int&lt;/p&gt;&lt;p style=&quot;line-height: 0.1;&quot;&gt;}&lt;/p&gt;&lt;p&gt;&lt;/p&gt;" style="text;html=1;strokeColor=none;fillColor=#FFAD4F;spacing=5;spacingTop=-20;whiteSpace=wrap;overflow=hidden;rounded=0;labelBackgroundColor=none;labelBorderColor=none;fontFamily=Work Sans;fontSource=https%3A%2F%2Ffonts.googleapis.com%2Fcss%3Ffamily%3DWork%2BSans;fontSize=13;fontColor=#000000;verticalAlign=top;shadow=0;sketch=1;" vertex="1" parent="WIyWlLk6GJQsqaUBKTNV-1">
          <mxGeometry x="350" y="380" width="200" height="140" as="geometry" />
        </mxCell>
        <mxCell id="LQQi7iO9lTZ28nIIsQ9H-16" value="" style="rounded=0;whiteSpace=wrap;html=1;shadow=0;labelBackgroundColor=none;labelBorderColor=none;sketch=1;fontFamily=Work Sans;fontSource=https%3A%2F%2Ffonts.googleapis.com%2Fcss%3Ffamily%3DWork%2BSans;fontSize=13;strokeColor=none;fillColor=#b1ddf0;glass=0;fillStyle=auto;" vertex="1" parent="WIyWlLk6GJQsqaUBKTNV-1">
          <mxGeometry x="690" y="248.75" width="770" height="601.25" as="geometry" />
        </mxCell>
        <mxCell id="LQQi7iO9lTZ28nIIsQ9H-17" value="Report Microservice" style="text;html=1;strokeColor=none;fillColor=none;align=center;verticalAlign=middle;whiteSpace=wrap;rounded=0;shadow=0;labelBackgroundColor=none;labelBorderColor=none;sketch=0;fontFamily=Work Sans;fontSource=https%3A%2F%2Ffonts.googleapis.com%2Fcss%3Ffamily%3DWork%2BSans;fontSize=14;fontColor=#000000;fontStyle=1" vertex="1" parent="WIyWlLk6GJQsqaUBKTNV-1">
          <mxGeometry x="995" y="210" width="160" height="30" as="geometry" />
        </mxCell>
        <mxCell id="LQQi7iO9lTZ28nIIsQ9H-25" value="" style="group;shadow=0;" vertex="1" connectable="0" parent="WIyWlLk6GJQsqaUBKTNV-1">
          <mxGeometry x="720" y="280" width="260" height="160" as="geometry" />
        </mxCell>
        <mxCell id="LQQi7iO9lTZ28nIIsQ9H-20" value="&lt;p style=&quot;font-size: 15px;&quot;&gt;&lt;br&gt;&lt;/p&gt;" style="rounded=0;whiteSpace=wrap;html=1;fillColor=#fad9d5;fontFamily=Work Sans;fontSource=https%3A%2F%2Ffonts.googleapis.com%2Fcss%3Ffamily%3DWork%2BSans;fontStyle=0;labelBorderColor=none;strokeColor=none;glass=0;sketch=0;fontSize=15;" vertex="1" parent="LQQi7iO9lTZ28nIIsQ9H-25">
          <mxGeometry width="260" height="160" as="geometry" />
        </mxCell>
        <mxCell id="LQQi7iO9lTZ28nIIsQ9H-21" value="&lt;span style=&quot;font-size: 13px;&quot;&gt;Offline Report Request Handler&lt;/span&gt;" style="text;html=1;strokeColor=none;fillColor=none;align=center;verticalAlign=middle;whiteSpace=wrap;rounded=0;shadow=0;labelBackgroundColor=none;labelBorderColor=none;sketch=0;fontFamily=Work Sans;fontSource=https%3A%2F%2Ffonts.googleapis.com%2Fcss%3Ffamily%3DWork%2BSans;fontSize=13;fontColor=#000000;fontStyle=1" vertex="1" parent="LQQi7iO9lTZ28nIIsQ9H-25">
          <mxGeometry x="25" y="8.88888888888889" width="210" height="26.666666666666668" as="geometry" />
        </mxCell>
        <mxCell id="LQQi7iO9lTZ28nIIsQ9H-22" value="1. Create Offline Report Request Entity Object.&lt;br&gt;&lt;br&gt;2. Save it in the database.&lt;br&gt;&lt;br&gt;3. Produce it to Kafka." style="text;html=1;strokeColor=none;fillColor=none;align=left;verticalAlign=middle;whiteSpace=wrap;rounded=0;shadow=0;labelBackgroundColor=none;labelBorderColor=none;sketch=0;fontFamily=Work Sans;fontSource=https%3A%2F%2Ffonts.googleapis.com%2Fcss%3Ffamily%3DWork%2BSans;fontSize=13;fontColor=#000000;" vertex="1" parent="LQQi7iO9lTZ28nIIsQ9H-25">
          <mxGeometry x="25" y="44.44444444444445" width="210" height="97.77777777777779" as="geometry" />
        </mxCell>
        <mxCell id="LQQi7iO9lTZ28nIIsQ9H-26" value="" style="curved=1;endArrow=classic;html=1;fontFamily=Work Sans;fontSource=https%3A%2F%2Ffonts.googleapis.com%2Fcss%3Ffamily%3DWork%2BSans;fontSize=13;fontColor=#0000FF;exitX=1;exitY=0.5;exitDx=0;exitDy=0;entryX=0;entryY=0.5;entryDx=0;entryDy=0;" edge="1" parent="WIyWlLk6GJQsqaUBKTNV-1" source="Lt6Cy_P6jHiYWKK2fMfe-1" target="LQQi7iO9lTZ28nIIsQ9H-20">
          <mxGeometry width="50" height="50" relative="1" as="geometry">
            <mxPoint x="420" y="280" as="sourcePoint" />
            <mxPoint x="470" y="230" as="targetPoint" />
            <Array as="points">
              <mxPoint x="480" y="360" />
              <mxPoint x="630" y="380" />
            </Array>
          </mxGeometry>
        </mxCell>
      </root>
    </mxGraphModel>
  </diagram>
</mxfile>
